<svg width="174" height="121" viewBox="0 0 174 121" fill="none" xmlns="http://www.w3.org/2000/svg">
<path shape-rendering="geometricPrecision" d="M85.5989 62.8828L89.1971 59.5331C103.395 45.8298 113.431 35.063 113.431 21.3815C113.431 10.7452 106.516 0.000113734 91.0613 0.000113734C84.8832 -0.016443 78.8344 1.77501 73.6554 5.15514L73.1352 5.50316V16.792L74.9559 15.4869C75.2594 15.2694 82.7377 10.1362 89.0671 10.1362C100.035 10.2667 101.726 17.9666 101.726 22.5343C101.618 32.7574 93.5107 41.6319 76.2999 58.0757L68.6049 65.5799V73.0188H115.143V62.8828H85.5989Z" fill="white"/>
<path shape-rendering="geometricPrecision" d="M141.913 85.1994L149.522 88.6579C138.944 97.9674 124.811 104.797 108.662 108.756C73.9154 117.304 39.147 104.841 25.7295 97.6411C11.2498 89.8759 1.45225 81.306 1.45225 81.306C2.55773 84.8079 25.0141 120.937 85.252 120.937H85.317C111.48 120.937 137.751 111.932 155.591 96.8798C160.579 92.6486 164.976 87.7612 168.662 82.35L171.61 78.0215L141.913 85.1994Z" fill="white"/>
<path shape-rendering="geometricPrecision" d="M54.9272 57.8147C54.7755 57.9017 40.2091 65.4493 29.0893 62.0562C18.2296 58.7282 12.2253 49.6797 12.2253 36.5638C12.2253 31.8655 13.0273 27.624 14.6314 23.9481C16.7556 19.2063 20.0721 15.6391 24.494 13.3118C28.0705 11.4847 32.4708 10.5494 37.3696 10.5276C47.4273 10.5276 54.472 15.3781 56.4662 17.0312V5.76411C54.2986 3.98052 50.0718 2.26218 47.8825 1.60964C40.8161 -0.521975 33.3812 -0.173956 26.2281 1.37038C19.075 2.91471 12.2253 6.65591 7.65166 12.5505C3.4465 17.7925 0 26.058 0 37.3033C0 48.3312 3.48985 57.5319 10.1227 63.905C15.1733 68.7555 21.7194 71.7137 29.5662 72.7577C31.435 73.0014 33.3174 73.1249 35.202 73.1275C46.2785 73.1275 55.2524 68.973 56.5963 67.8855V56.9229L54.9272 57.8147Z" fill="white"/>
<path shape-rendering="geometricPrecision" d="M163.416 44.3942V1.19636H151.537L120.064 46.3518V54.0952H152.253V72.9752L163.416 70.2781V54.0952H173.105V44.3942H163.416ZM132.831 44.3942L152.274 16.0089V44.3942H132.831Z" fill="white"/>
</svg>
